    `don’t 
    <?xml version="1.0" encoding="UTF-8"?>
<svg version="1.1" xmlns="http://www.w3.org/2000/svg" width="992" height="980">
<path d="M0 0 C327.36 0 654.72 0 992 0 C992 323.4 992 646.8 992 980 C664.64 980 337.28 980 0 980 C0 656.6 0 333.2 0 0 Z " fill="#FEFEFE" transform="translate(0,0)"/>
<path d="M0 0 C1.3943779 -0.01151093 1.3943779 -0.01151093 2.81692505 -0.02325439 C14.9744604 -0.10354292 26.36078285 0.82959471 38.25 3.375 C39.45575684 3.61855225 40.66151367 3.86210449 41.90380859 4.11303711 C61.1426086 8.07093249 80.31373046 17.19853611 92.25 33.3125 C98.16123142 42.6204838 101.07297999 51.37447069 101.25 62.375 C101.26901367 63.06432617 101.28802734 63.75365234 101.30761719 64.46386719 C101.90242503 86.90079922 97.41385156 105.15198457 81.78125 121.95703125 C60.12251452 142.64647147 25.65938533 146.375 -2.75 146.375 C-2.75 177.725 -2.75 209.075 -2.75 241.375 C-21.23 241.375 -39.71 241.375 -58.75 241.375 C-58.76981934 235.21207275 -58.78963867 229.04914551 -58.81005859 222.69946289 C-58.87692501 202.3513605 -58.95446564 182.00330918 -59.03752708 161.65526676 C-59.08763252 149.31665853 -59.13407573 136.97805687 -59.171875 124.6394043 C-59.20483307 113.88408428 -59.24468546 103.12881559 -59.29279006 92.37355226 C-59.31801702 86.67961538 -59.33980959 80.98571238 -59.35334396 75.2917347 C-59.36619874 69.92951791 -59.38829008 64.56741756 -59.41738319 59.20526505 C-59.42643226 57.24012577 -59.43214295 55.27496775 -59.43421364 53.30980873 C-59.43755508 50.61970249 -59.45308314 47.92992262 -59.4715271 45.23988342 C-59.46959237 44.4684546 -59.46765763 43.69702577 -59.46566427 42.90222031 C-59.51320182 38.24101033 -60.12502664 33.99164635 -61.23912966 29.46391767 C-62.11495946 25.88270303 -62.73190258 22.25390689 -63.375 18.625 C-63.5090625 17.89667969 -63.643125 17.16835938 -63.78125 16.41796875 C-64.44603884 12.68022739 -64.811489 9.16436237 -64.75 5.375 C-43.1034583 1.94728255 -21.90460643 0.07607607 0 0 Z " fill="#182721" transform="translate(376.75,336.625)"/>
<path d="M0 0 C0.35191406 1.20011719 0.70382812 2.40023438 1.06640625 3.63671875 C3.59112871 12.18340402 6.18985152 20.68852209 9.0625 29.125 C12.82768337 40.22769114 16.28220341 51.42681435 19.75 62.625 C20.17939377 64.00827484 20.17939377 64.00827484 20.61746216 65.41949463 C26.29729084 83.72937494 26.29729084 83.72937494 28.41699219 91.91943359 C29.18435235 94.65789393 30.20985666 97.26255235 31.25 99.90625 C32.44435739 103.2404977 33.28806519 106.66235291 34.15625 110.09375 C35.0052773 113.01817738 36.05721462 115.82730683 37.14355469 118.67041016 C38.87297408 123.37454922 40.35601092 128.16218489 41.875 132.9375 C42.40444214 134.59749023 42.40444214 134.59749023 42.94458008 136.29101562 C45.75967999 145.15816173 48.42876466 154.05964961 51 163 C51.87089149 166.02203969 52.74682884 169.04256878 53.625 172.0625 C53.81924561 172.74119141 54.01349121 173.41988281 54.21362305 174.11914062 C55.40390009 178.21163327 56.79688809 182.174878 58.32177734 186.15405273 C59.5151476 189.40209899 60.30854914 192.74331327 61.15625 196.09375 C61.98207929 198.93827312 63.00276694 201.66494277 64.05908203 204.43017578 C66.01165053 209.76300817 67.74469907 215.17278218 69.4987793 220.57348633 C69.96002498 221.98927021 70.42457532 223.40398152 70.89233398 224.81762695 C71.57472765 226.88005164 72.24740279 228.94542255 72.91796875 231.01171875 C73.31781982 232.23334717 73.7176709 233.45497559 74.12963867 234.71362305 C75 238 75 238 75 243 C57.18 243 39.36 243 21 243 C18.79120119 235.6373373 16.63601114 228.27510298 14.5625 220.875 C14.25465576 219.77768555 13.94681152 218.68037109 13.62963867 217.54980469 C11.59121621 210.23834051 9.69979568 202.90673371 7.91015625 195.53125 C6.70341295 190.84929316 5.24901267 186.26239223 3.734375 181.671875 C3 179 3 179 3 175 C-17.79 175 -38.58 175 -60 175 C-61.32 180.94 -62.64 186.88 -64 193 C-65.9921875 200.12109375 -65.9921875 200.12109375 -66.99121094 203.50732422 C-68.09032132 207.31271463 -69.09367496 211.13442132 -70.0703125 214.97265625 C-70.24004578 215.63824554 -70.40977905 216.30383484 -70.58465576 216.98959351 C-71.27631936 219.70806599 -71.96477697 222.42733543 -72.65087891 225.1472168 C-73.16277056 227.17311729 -73.6788098 229.19792725 -74.1953125 231.22265625 C-74.49453613 232.40609619 -74.79375977 233.58953613 -75.10205078 234.80883789 C-76 238 -76 238 -78 243 C-95.16 243 -112.32 243 -130 243 C-126.62642202 229.50568807 -126.62642202 229.50568807 -125.203125 224.94921875 C-124.88754639 223.9319873 -124.57196777 222.91475586 -124.24682617 221.86669922 C-123.91787354 220.81756348 -123.5889209 219.76842773 -123.25 218.6875 C-122.54253866 216.41289414 -121.83551672 214.13815158 -121.12890625 211.86328125 C-120.59740967 210.15519287 -120.59740967 210.15519287 -120.05517578 208.41259766 C-119.03269258 205.10573273 -118.02624559 201.79452583 -117.02734375 198.48046875 C-116.71700195 197.45155518 -116.40666016 196.4226416 -116.08691406 195.36254883 C-115.50492176 193.42936756 -114.92472351 191.49564488 -114.34667969 189.5612793 C-113.00162931 185.1048806 -111.53748985 180.75819807 -109.86791992 176.41064453 C-105.36868702 163.91404097 -101.91475417 151.00345663 -98.22412109 138.25097656 C-97.5870039 136.05194096 -96.94607166 133.85404425 -96.3046875 131.65625 C-96.11711884 131.00402466 -95.92955017 130.35179932 -95.73629761 129.67980957 C-94.56174633 125.66465219 -93.18903634 121.7728871 -91.69641113 117.86968994 C-90.75922077 115.35356791 -89.98759961 112.80432558 -89.23828125 110.2265625 C-88.92810059 109.16759766 -88.61791992 108.10863281 -88.29833984 107.01757812 C-87.9730127 105.89802734 -87.64768555 104.77847656 -87.3125 103.625 C-84.55605195 94.23227809 -81.75763162 84.85481102 -78.875 75.5 C-78.54314697 74.42129639 -78.21129395 73.34259277 -77.86938477 72.23120117 C-76.37602654 67.39340049 -74.86671526 62.56219231 -73.3046875 57.74609375 C-68.4860355 42.88228015 -64.91681434 28.3151718 -63.03833008 12.77783203 C-62.93029053 11.92431152 -62.82225098 11.07079102 -62.7109375 10.19140625 C-62.62118652 9.43029541 -62.53143555 8.66918457 -62.43896484 7.88500977 C-62 6 -62 6 -60 4 C-57.53588867 3.62109375 -57.53588867 3.62109375 -54.41796875 3.4375 C-53.26804443 3.3638623 -52.11812012 3.29022461 -50.93334961 3.21435547 C-49.69721924 3.14361816 -48.46108887 3.07288086 -47.1875 3 C-44.63007012 2.8381063 -42.07277793 2.67402339 -39.515625 2.5078125 C-38.24396484 2.42563477 -36.97230469 2.34345703 -35.66210938 2.25878906 C-30.57592584 1.89936543 -25.508897 1.3992069 -20.4375 0.875 C-13.59769651 0.1798452 -6.88115072 -0.22619088 0 0 Z " fill="#182721" transform="translate(621,335)"/>
<path d="M0 0 C3.63 0 7.26 0 11 0 C11 320.76 11 641.52 11 972 C332.42 972 653.84 972 985 972 C985 651.24 985 330.48 985 0 C987.31 0 989.62 0 992 0 C992 323.4 992 646.8 992 980 C664.64 980 337.28 980 0 980 C0 656.6 0 333.2 0 0 Z " fill="#E7E9ED" transform="translate(0,0)"/>
<path d="M0 0 C2.18053918 -0.00218054 4.36056561 -0.02039959 6.54101562 -0.03930664 C16.32889134 -0.07845814 25.7697352 0.75763404 35.44726562 2.18530273 C36.3634668 2.31106689 37.27966797 2.43683105 38.22363281 2.56640625 C77.6882903 8.03591305 115.77599952 23.94663255 147.44726562 48.18530273 C148.03975098 48.62970703 148.63223633 49.07411133 149.24267578 49.53198242 C166.97191435 62.91200984 183.48443767 79.12993522 196.44726562 97.18530273 C197.27347691 98.28440017 198.10163743 99.38203476 198.93164062 100.47827148 C228.38629001 139.87872082 244.95261275 189.44558979 244.70800781 238.56884766 C244.6972872 241.11767424 244.7079799 243.66579411 244.72070312 246.21459961 C244.7352832 261.64979016 243.26559922 276.68478166 240.13476562 291.81030273 C239.91457764 292.88022461 239.69438965 293.95014648 239.4675293 295.05249023 C235.95940015 311.63318766 229.92469908 326.92648068 223.51293945 342.57666016 C222.47880289 345.10810325 221.45972487 347.64512249 220.44726562 350.18530273 C218.44726562 349.18530273 218.44726562 349.18530273 217.41210938 346.09545898 C217.07308594 344.82573242 216.7340625 343.55600586 216.38476562 342.24780273 C215.21881136 337.60272054 215.21881136 337.60272054 213.44726562 333.18530273 C212.94470774 327.17745167 214.41954396 322.95702885 216.57226562 317.49780273 C221.30914426 304.72629529 224.00384882 291.56034478 226.44726562 278.18530273 C226.59566895 277.3797998 226.74407227 276.57429688 226.89697266 275.74438477 C233.30897486 238.7152855 228.17180197 197.00250474 214.44726562 162.18530273 C214.15996582 161.43023437 213.87266602 160.67516602 213.57666016 159.8972168 C206.58806064 141.73570948 197.02672991 124.81655115 185.44726562 109.18530273 C184.66996094 108.12311523 183.89265625 107.06092773 183.09179688 105.96655273 C177.07322374 97.86782759 170.42900494 90.46039244 163.44726562 83.18530273 C162.27164063 81.94780273 162.27164063 81.94780273 161.07226562 80.68530273 C155.5711974 75.02706113 149.65681054 70.04697905 143.44726562 65.18530273 C142.88185059 64.7328418 142.31643555 64.28038086 141.73388672 63.81420898 C94.67396107 26.25786929 33.38621048 10.80882407 -26.09570312 16.83374023 C-72.73161051 22.66780472 -115.69459066 42.92511755 -150.55273438 74.18530273 C-152.00987103 75.43669751 -153.46800952 76.686928 -154.92773438 77.93530273 C-161.88745021 83.94375956 -161.88745021 83.94375956 -167.76513672 90.94335938 C-169.86879099 93.84006676 -171.42474173 95.82630031 -174.90771484 96.93481445 C-177.59254197 97.31764253 -180.21830645 97.51264768 -182.92773438 97.62280273 C-184.31798828 97.71851563 -184.31798828 97.71851563 -185.73632812 97.81616211 C-188.00832115 97.96840906 -190.27774092 98.09053793 -192.55273438 98.18530273 C-190.71005462 94.26255248 -188.18539489 91.19311511 -185.36523438 87.93530273 C-184.61995483 87.06651489 -184.61995483 87.06651489 -183.85961914 86.18017578 C-182.87083368 85.02908359 -181.88023793 83.87954356 -180.88769531 82.73168945 C-179.79253119 81.46307761 -178.70648912 80.18659629 -177.62304688 78.90795898 C-169.74663145 69.69368353 -161.03699561 61.70966605 -151.55273438 54.18530273 C-150.369375 53.20110352 -150.369375 53.20110352 -149.16210938 52.19702148 C-127.52382109 34.32035616 -101.35782061 20.36756349 -74.55273438 12.18530273 C-73.11358848 11.69006002 -71.67585122 11.19068429 -70.24023438 10.68530273 C-47.24234186 3.14781841 -24.18687189 -0.00269222 0 0 Z " fill="#1B2924" transform="translate(491.552734375,233.814697265625)"/>
<path d="M0 0 C1.71100951 3.06975235 2.5094873 5.85878985 3.125 9.3125 C3.37636719 10.66794922 3.37636719 10.66794922 3.6328125 12.05078125 C4.68636919 20.51285889 2.96969706 24.55629233 -1.4375 31.625 C-7.65948501 42.04933561 -12.60938971 52.69251178 -17 64 C-17.25330078 64.64533691 -17.50660156 65.29067383 -17.76757812 65.95556641 C-32.65136315 104.65976807 -33.9183928 146.57442872 -27 187 C-26.74307373 188.50385254 -26.74307373 188.50385254 -26.48095703 190.03808594 C-19.28145995 230.10906202 1.33818284 266.74633646 28 297 C28.46390137 297.52706543 28.92780273 298.05413086 29.40576172 298.59716797 C34.72498925 304.82331074 34.72498925 304.82331074 41 310 C40.41463247 313.66060821 38.916761 315.54535164 36.4375 318.25 C35.47650391 319.30960938 35.47650391 319.30960938 34.49609375 320.390625 C34.00238281 320.92171875 33.50867188 321.4528125 33 322 C4.45226795 309.34956076 -18.71070199 261.93074473 -29.42529297 234.67724609 C-30.73033978 231.22545078 -31.98004119 227.75693376 -33.19775391 224.2734375 C-33.89562348 222.29578641 -34.63741549 220.33374205 -35.38671875 218.375 C-42.11909405 200.0255607 -46.10048542 179.09042063 -46.23828125 159.6015625 C-46.246353 158.49436859 -46.25442474 157.38717468 -46.26274109 156.24642944 C-46.27654626 153.89802596 -46.2872843 151.54960271 -46.29516602 149.20117188 C-46.3065661 146.84922207 -46.32682181 144.49729559 -46.35668945 142.14550781 C-46.65247859 118.7930383 -43.88266804 96.83518096 -36.80761719 74.55175781 C-35.99578826 71.98669253 -35.21992 69.41245504 -34.4453125 66.8359375 C-26.97571709 42.61489327 -14.89632235 20.44808825 0 0 Z " fill="#1B2924" transform="translate(297,333)"/>
<path d="M0 0 C3.2914911 -0.08857863 6.58266805 -0.1409104 9.875 -0.1875 C10.7928125 -0.21263672 11.710625 -0.23777344 12.65625 -0.26367188 C24.74293862 -0.39134816 35.4666618 3.47353978 44.3125 11.8125 C52.36722449 20.28440146 53.37468184 29.07458862 53.2109375 40.3359375 C52.83545706 51.80895093 49.38125986 60.61874014 41.25 68.75 C30.76570049 76.0083612 19.91902279 79.08023443 7.234375 79.0234375 C6.25178711 79.02005371 5.26919922 79.01666992 4.25683594 79.01318359 C3.51208008 79.00883301 2.76732422 79.00448242 2 79 C1.9845388 78.02186592 1.9845388 78.02186592 1.96876526 77.02397156 C1.85998977 70.19354652 1.74545647 63.36323471 1.62768555 56.53295898 C1.58456277 53.98903794 1.54287334 51.44509215 1.50268555 48.90112305 C1.44442991 45.22957933 1.38089916 41.55815758 1.31640625 37.88671875 C1.29969376 36.76230881 1.28298126 35.63789886 1.26576233 34.47941589 C1.15356402 28.40243714 0.84410523 22.40368643 0.21716309 16.35717773 C-0.09279394 12.99277627 -0.09595179 9.69113061 -0.0625 6.3125 C-0.05347656 5.11238281 -0.04445313 3.91226562 -0.03515625 2.67578125 C-0.02355469 1.79277344 -0.01195312 0.90976562 0 0 Z " fill="#FDFCFA" transform="translate(372,370)"/>
<path d="M0 0 C0.66 0.33 1.32 0.66 2 1 C2.61394143 3.61846021 3.09285846 6.15971838 3.5 8.8125 C3.62890625 9.61421631 3.7578125 10.41593262 3.890625 11.24194336 C4.80751687 17.16563789 5.45005368 23.09497265 6 29.0625 C7.30857542 43.08352853 9.96984228 56.42219707 13.66796875 70 C15.36141112 76.25886303 16.83110152 82.56919251 18.30029297 88.88378906 C19.16363661 92.57438543 20.04655412 96.23094136 21.14453125 99.859375 C22 103 22 103 22 107 C7.81 107 -6.38 107 -21 107 C-20.39219339 102.1375471 -19.81424172 97.72967907 -18.73046875 93.0234375 C-18.48103516 91.93933594 -18.23160156 90.85523438 -17.97460938 89.73828125 C-17.71486328 88.62839844 -17.45511719 87.51851563 -17.1875 86.375 C-16.93935547 85.28832031 -16.69121094 84.20164062 -16.43554688 83.08203125 C-15.12876306 77.44922773 -13.68568307 71.91311108 -11.99609375 66.3828125 C-9.43325674 57.55655622 -8.19057687 48.57695907 -6.875 39.5 C-6.62193459 37.80325979 -6.36803171 36.10664428 -6.11328125 34.41015625 C-5.1907513 28.23640562 -4.26902084 22.06296526 -3.44628906 15.875 C-3.19830566 14.03421875 -3.19830566 14.03421875 -2.9453125 12.15625 C-2.80883301 11.10244141 -2.67235352 10.04863281 -2.53173828 8.96289062 C-1.97115434 5.83926952 -1.07315787 2.98278856 0 0 Z " fill="#F9F8F5" transform="translate(592,368)"/>
<path d="M0 0 C1.14597656 0.12761719 2.29195312 0.25523437 3.47265625 0.38671875 C-7.33815303 24.9345714 -25.63997667 45.66723937 -44.52734375 64.38671875 C-47.9716264 62.93890082 -49.88865337 61.10977266 -52.27734375 58.26171875 C-52.8909375 57.53726563 -53.50453125 56.8128125 -54.13671875 56.06640625 C-54.595625 55.51210938 -55.05453125 54.9578125 -55.52734375 54.38671875 C-52.43612564 50.67725701 -49.33250844 47.15845329 -45.83984375 43.82421875 C-38.05254831 36.12592098 -31.6648046 27.06165246 -25.27734375 18.19921875 C-24.85606201 17.62461914 -24.43478027 17.05001953 -24.00073242 16.45800781 C-22.0177511 13.70323557 -20.41275953 11.14595043 -18.9453125 8.0625 C-14.52199705 -1.05256429 -9.29533156 -0.73510828 0 0 Z " fill="#1B2924" transform="translate(704.52734375,589.61328125)"/>
<path d="M0 0 C4.55122736 2.23423889 6.74865849 4.51661419 9 9 C9.81354137 14.37963393 9.89192093 20.10076115 7.4375 25.0625 C3.70280712 29.56328373 0.15015268 30.73594616 -5.5625 31.4375 C-9.75759874 30.90357834 -11.77684272 29.71038226 -15 27 C-18.94826885 21.28181752 -19.74224036 16.88634108 -19 10 C-17.74325118 6.31171541 -15.76613106 3.69853126 -12.875 1.0625 C-8.54729994 -0.53686742 -4.55432641 -0.656874 0 0 Z " fill="#21302A" transform="translate(437,782)"/>
<path d="M0 0 C2.4375 1.6875 2.4375 1.6875 4 4 C4.25 7.25 4.25 7.25 4 10 C4.70125 10.165 5.4025 10.33 6.125 10.5 C10.31359067 12.68535165 12.39230949 16.14671162 15 20 C13.68 20.99 12.36 21.98 11 23 C7.63279613 21.60667426 6.0140476 20.0210714 4 17 C0.08393425 17.53400897 -2.39338934 18.19669467 -6 20 C-4.02 22.97 -2.04 25.94 0 29 C-0.66 30.32 -1.32 31.64 -2 33 C-3.485 33.495 -3.485 33.495 -5 34 C-7.6524447 30.5675556 -10.29580015 27.12821866 -12.9375 23.6875 C-13.69224609 22.71103516 -14.44699219 21.73457031 -15.22460938 20.72851562 C-15.94326172 19.79072266 -16.66191406 18.85292969 -17.40234375 17.88671875 C-18.06741943 17.02264404 -18.73249512 16.15856934 -19.41772461 15.26831055 C-21 13 -21 13 -22 10 C-19.87657342 8.35210134 -17.7513551 6.70661212 -15.625 5.0625 C-15.02171875 4.59392578 -14.4184375 4.12535156 -13.796875 3.64257812 C-8.51652701 -0.43502394 -6.67500558 -1.49612194 0 0 Z " fill="#212F29" transform="translate(639,650)"/>
<path d="M0 0 C3.19975116 1.46837896 5.84834256 3.27839346 8.625 5.4375 C9.78902344 6.33275391 9.78902344 6.33275391 10.9765625 7.24609375 C13.69750482 9.60459395 14.90566363 11.27675452 15.375 14.875 C14.91077973 18.74350229 13.68686861 20.23636372 11 23 C8 25 8 25 4.6875 24.875 C0.70127931 23.92911712 -1.6500933 22.28402729 -5 20 C-8.99996286 21.33332095 -9.83782337 23.4957827 -12 27 C-13.65 26.01 -15.3 25.02 -17 24 C-15.70063656 20.37878413 -14.15796756 17.62462983 -11.77734375 14.609375 C-11.15666016 13.81789063 -10.53597656 13.02640625 -9.89648438 12.2109375 C-9.25001953 11.39882813 -8.60355469 10.58671875 -7.9375 9.75 C-7.28716797 8.92242188 -6.63683594 8.09484375 -5.96679688 7.2421875 C-1.23455598 1.23455598 -1.23455598 1.23455598 0 0 Z " fill="#21302A" transform="translate(352,647)"/>
<path d="M0 0 C4.23487294 1.71196991 6.0138788 3.92322491 8 8 C8 8.66 8 9.32 8 10 C5.25 10.25 5.25 10.25 2 10 C0.66666667 8.66666667 -0.66666667 7.33333333 -2 6 C-5 5.25 -5 5.25 -8 6 C-10.64736319 8.15969102 -11.79186119 9.80638765 -12.3828125 13.1953125 C-12.5694139 16.96466077 -12.42511024 19.30281921 -10.4375 22.5625 C-7.05949997 24.55465386 -4.85097134 24.56014129 -1 24 C0.98239527 22.13875077 0.98239527 22.13875077 2 20 C0.02 19.67 -1.96 19.34 -4 19 C-4 17.35 -4 15.7 -4 14 C-0.04 14 3.92 14 8 14 C8 19.28 8 24.56 8 30 C6.68 30 5.36 30 4 30 C4 29.01 4 28.02 4 27 C3.154375 27.66 2.30875 28.32 1.4375 29 C-2.55712785 31.32414711 -4.45452321 31.64935383 -9 31 C-13.77923201 28.56352878 -16.66932175 25.84063945 -19 21 C-19.9224318 14.72953661 -19.25899437 9.43165729 -16 4 C-11.17256338 -0.5919519 -6.34450769 -0.86998266 0 0 Z " fill="#202E28" transform="translate(791,782)"/>
<path d="M0 0 C2.64 0 5.28 0 8 0 C9.42819399 3.94956413 10.85224928 7.90058797 12.27246094 11.85302734 C12.75634643 13.19783932 13.24136744 14.54224328 13.72753906 15.88623047 C14.42550666 17.81632453 15.11939898 19.74784137 15.8125 21.6796875 C16.23144531 22.84226074 16.65039062 24.00483398 17.08203125 25.20263672 C18 28 18 28 18 30 C15.69 30 13.38 30 11 30 C10.67 28.02 10.34 26.04 10 24 C6.04 24 2.08 24 -2 24 C-2.33 25.98 -2.66 27.96 -3 30 C-5.31 30 -7.62 30 -10 30 C-7.56775836 19.6919283 -3.74664374 9.88394443 0 0 Z " fill="#22302A" transform="translate(240,782)"/>
<path d="M0 0 C7 0 7 0 8.80444336 1.74414062 C9.22862549 2.54013672 9.65280762 3.33613281 10.08984375 4.15625 C10.56357422 5.01347656 11.03730469 5.87070312 11.52539062 6.75390625 C11.99138672 7.66011719 12.45738281 8.56632813 12.9375 9.5 C13.43056641 10.40621094 13.92363281 11.31242188 14.43164062 12.24609375 C15.64511414 14.48454005 16.82576939 16.74072085 18 19 C18.33 13.06 18.66 7.12 19 1 C20.65 1 22.3 1 24 1 C24 10.57 24 20.14 24 30 C22.02 30 20.04 30 18 30 C16.30908203 28.25585938 16.30908203 28.25585938 15.0078125 25.84375 C14.53085937 24.98652344 14.05390625 24.12929688 13.5625 23.24609375 C13.088125 22.33988281 12.61375 21.43367187 12.125 20.5 C11.62742187 19.59378906 11.12984375 18.68757812 10.6171875 17.75390625 C9.39096851 15.51369847 8.19276866 13.25819548 7 11 C6.67 17.27 6.34 23.54 6 30 C4.02 30 2.04 30 0 30 C0 20.1 0 10.2 0 0 Z " fill="#212F29" transform="translate(710,782)"/>
<path d="M0 0 C1.98 0 3.96 0 6 0 C6 9.9 6 19.8 6 30 C3.69 30 1.38 30 -1 30 C-6.445 20.1 -6.445 20.1 -12 10 C-12.33 16.6 -12.66 23.2 -13 30 C-14.65 30 -16.3 30 -18 30 C-18 20.43 -18 10.86 -18 1 C-15.69 1 -13.38 1 -11 1 C-7.7 6.94 -4.4 12.88 -1 19 C-0.67 12.73 -0.34 6.46 0 0 Z " fill="#1F2D28" transform="translate(564,782)"/>
<path d="M0 0 C3.37836205 1.25377101 4.59922849 3.01064799 6.765625 5.87109375 C11.11689431 11.4582698 15.72934393 16.71733944 20.515625 21.93359375 C19.1796875 23.4453125 19.1796875 23.4453125 17.515625 24.93359375 C14.890625 24.74609375 14.890625 24.74609375 12.515625 23.93359375 C12.185625 23.27359375 11.855625 22.61359375 11.515625 21.93359375 C7.83296397 22.53309671 4.17019315 23.18118266 0.515625 23.93359375 C0.515625 26.24359375 0.515625 28.55359375 0.515625 30.93359375 C-1.464375 31.59359375 -3.444375 32.25359375 -5.484375 32.93359375 C-5.814375 22.70359375 -6.144375 12.47359375 -6.484375 1.93359375 C-2.484375 -0.06640625 -2.484375 -0.06640625 0 0 Z " fill="#1F2E28" transform="translate(578.484375,681.06640625)"/>
<path d="M0 0 C-1.49076434 3.2826932 -3.38620321 5.93077441 -5.625 8.75 C-6.25664063 9.54921875 -6.88828125 10.3484375 -7.5390625 11.171875 C-8.02117188 11.77515625 -8.50328125 12.3784375 -9 13 C-6.7907455 17.08822178 -4.16697001 19.98792615 -0.8125 23.1875 C0.82879568 24.75365768 2.44324599 26.34978233 4 28 C4 28.66 4 29.32 4 30 C-2.84452531 30.84055574 -2.84452531 30.84055574 -5.94921875 28.58203125 C-7.7189187 26.78162068 -9.36122922 24.91970291 -11 23 C-12.32 21.68 -13.64 20.36 -15 19 C-15 23.29 -15 27.58 -15 32 C-18.465 32.495 -18.465 32.495 -22 33 C-22.50488515 28.93809157 -23.0030519 24.87538649 -23.5 20.8125 C-23.64308594 19.66201172 -23.78617187 18.51152344 -23.93359375 17.32617188 C-24.13662109 15.65844727 -24.13662109 15.65844727 -24.34375 13.95703125 C-24.46943359 12.93585205 -24.59511719 11.91467285 -24.72460938 10.86254883 C-24.97897068 8.21858939 -25.05115721 5.6537801 -25 3 C-22.69 3 -20.38 3 -18 3 C-17.67 5.64 -17.34 8.28 -17 11 C-16.34 11 -15.68 11 -15 11 C-13.2347195 8.4931197 -11.64948237 5.89858249 -10.046875 3.28515625 C-7.08725394 -0.01900085 -4.26422154 0 0 0 Z " fill="#24322C" transform="translate(532,694)"/>
<path d="M0 0 C4.31490268 0.79599329 8.21099365 2.12399423 12.25 3.8125 C13.20519531 4.1847168 13.20519531 4.1847168 14.1796875 4.56445312 C18.78640697 6.49045393 18.78640697 6.49045393 19.921875 9.19921875 C19.94765625 9.79347656 19.9734375 10.38773438 20 11 C17.13421241 12.16161779 15.98369837 11.9946154 12.984375 11.00390625 C11.91703125 10.52824219 10.8496875 10.05257812 9.75 9.5625 C8.13351562 8.85287109 8.13351562 8.85287109 6.484375 8.12890625 C5.66453125 7.75636719 4.8446875 7.38382813 4 7 C3.34 8.98 2.68 10.96 2 13 C2.68707031 13.19335938 3.37414062 13.38671875 4.08203125 13.5859375 C4.98308594 13.84632813 5.88414062 14.10671875 6.8125 14.375 C7.70582031 14.63023437 8.59914063 14.88546875 9.51953125 15.1484375 C12 16 12 16 15 18 C14.67 19.32 14.34 20.64 14 22 C8.94744036 21.36843005 4.70406799 19.86540627 0 18 C-0.99 20.31 -1.98 22.62 -3 25 C-2.41992188 25.18175781 -1.83984375 25.36351562 -1.2421875 25.55078125 C3.39147293 27.0418106 7.69762355 28.68333576 12 31 C11.67 32.32 11.34 33.64 11 35 C6.25030134 34.39443166 2.07299422 33.04591658 -2.3125 31.1875 C-2.94478516 30.93935547 -3.57707031 30.69121094 -4.22851562 30.43554688 C-8.75368802 28.52944532 -8.75368802 28.52944532 -9.81494141 26.24829102 C-10.07001012 23.1494417 -9.13726315 21.20747496 -7.91015625 18.359375 C-7.45576172 17.28945313 -7.00136719 16.21953125 -6.53320312 15.1171875 C-6.04787109 14.00601563 -5.56253906 12.89484375 -5.0625 11.75 C-4.34030273 10.06003906 -4.34030273 10.06003906 -3.60351562 8.3359375 C-2.4124158 5.55277356 -1.210947 2.77457241 0 0 Z " fill="#212F29" transform="translate(399,677)"/>
<path d="M0 0 C1.98 0 3.96 0 6 0 C6.02505615 0.69150146 6.0501123 1.38300293 6.07592773 2.09545898 C6.19152161 5.20967866 6.31441242 8.32356789 6.4375 11.4375 C6.47681641 12.52611328 6.51613281 13.61472656 6.55664062 14.73632812 C6.61948242 16.28803711 6.61948242 16.28803711 6.68359375 17.87109375 C6.72025146 18.82943115 6.75690918 19.78776855 6.79467773 20.77514648 C6.75834424 22.97138925 6.75834424 22.97138925 8 24 C11.5 24.16666667 11.5 24.16666667 15 24 C16.65079442 22.34920558 16.22549447 20.36263821 16.31640625 18.08984375 C16.35830078 17.10048828 16.40019531 16.11113281 16.44335938 15.09179688 C16.48267578 14.05087891 16.52199219 13.00996094 16.5625 11.9375 C16.60568359 10.89271484 16.64886719 9.84792969 16.69335938 8.77148438 C16.79981225 6.18113116 16.9018276 3.59067814 17 1 C18.98 1 20.96 1 23 1 C23.14553599 4.89543877 23.23415059 8.79017651 23.3125 12.6875 C23.35439453 13.79029297 23.39628906 14.89308594 23.43945312 16.02929688 C23.5632613 24.22539778 23.5632613 24.22539778 20.66796875 28.20703125 C16.28475225 31.15270676 12.17232824 31.5657234 7 31 C4.13991887 29.75648647 2.55716817 28.87350374 0.87939453 26.24316406 C-0.20320569 23.4816619 -0.22683779 21.32275186 -0.1953125 18.359375 C-0.18886719 17.28945313 -0.18242187 16.21953125 -0.17578125 15.1171875 C-0.15902344 14.00601563 -0.14226562 12.89484375 -0.125 11.75 C-0.11597656 10.62335937 -0.10695313 9.49671875 -0.09765625 8.3359375 C-0.07410658 5.55707635 -0.0412168 2.7786461 0 0 Z " fill="#202E29" transform="translate(484,782)"/>
<path d="M0 0 C3.41827315 2.3927912 4.66050439 3.82482288 5.8125 7.8125 C5.874375 8.534375 5.93625 9.25625 6 10 C4.02 10 2.04 10 0 10 C-0.33 8.68 -0.66 7.36 -1 6 C-2.8871875 5.9071875 -2.8871875 5.9071875 -4.8125 5.8125 C-5.52019531 5.77769531 -6.22789062 5.74289062 -6.95703125 5.70703125 C-9.06098022 5.85769005 -9.06098022 5.85769005 -10.7421875 7.171875 C-12.46459397 9.67524838 -12.36569471 11.4217693 -12.3125 14.4375 C-12.30863281 15.38496094 -12.30476563 16.33242188 -12.30078125 17.30859375 C-12.11907164 20.33703577 -12.11907164 20.33703577 -10 24 C-7.03 24 -4.06 24 -1 24 C-0.67 22.68 -0.34 21.36 0 20 C1.98 20 3.96 20 6 20 C5.58565093 24.83407252 3.62206046 26.89537674 0 30 C-3.61930698 31.20643566 -6.19231005 31.32268559 -10 31 C-15.56344159 28.11128994 -18.04540883 24.86377351 -20 19 C-20.53774637 12.65459287 -19.66637535 8.28103734 -16 3 C-11.71945377 -1.15083271 -5.61423891 -0.90198733 0 0 Z " fill="#24322D" transform="translate(313,782)"/>
<path d="M0 0 C4.15722022 1.93013796 5.5864893 3.02261108 7.375 7.25 C7.58125 8.1575 7.7875 9.065 8 10 C5.25 10.25 5.25 10.25 2 10 C0.66666667 8.66666667 -0.66666667 7.33333333 -2 6 C-5.04279372 5.33319632 -5.04279372 5.33319632 -8 6 C-10.80481969 8.90381332 -11.41149222 11.01018386 -11.375 15 C-11.38273437 15.845625 -11.39046875 16.69125 -11.3984375 17.5625 C-10.91646693 20.51102581 -10.10865251 21.89617279 -8 24 C-4.37436186 24.33380814 -4.37436186 24.33380814 -1 24 C-0.34 22.68 0.32 21.36 1 20 C3.31 20 5.62 20 8 20 C5.09580838 27.69610778 5.09580838 27.69610778 1 30 C-2.61930698 31.20643566 -5.19231005 31.32268559 -9 31 C-12.47373656 29.26313172 -14.51249397 27.63375783 -16.875 24.5625 C-18.62348279 19.02563784 -18.90544818 13.73925816 -18 8 C-13.82539061 0.2763343 -8.30890505 -0.90480408 0 0 Z " fill="#22302A" transform="translate(374,782)"/>
<path d="M0 0 C2.52108103 0.14224587 5.04180403 0.28870121 7.5625 0.4375 C8.26697266 0.47681641 8.97144531 0.51613281 9.69726562 0.55664062 C14.1798541 0.82518279 18.56293497 1.30616197 23 2 C23 3.98 23 5.96 23 8 C20.03 7.67 17.06 7.34 14 7 C13.95101563 7.64324219 13.90203125 8.28648437 13.8515625 8.94921875 C13.23832612 16.36092052 12.20157431 23.66223066 11 31 C9.02 30.67 7.04 30.34 5 30 C4.84509777 24.26861756 5.34755115 19.10650794 6.5 13.5 C6.71462891 12.40945313 6.71462891 12.40945313 6.93359375 11.296875 C7.28233698 9.52990929 7.64019723 7.76474691 8 6 C5.36 5.67 2.72 5.34 0 5 C0 3.35 0 1.7 0 0 Z " fill="#24322C" transform="translate(451,694)"/>
<path d="M0 0 C7.92 0 15.84 0 24 0 C24 1.65 24 3.3 24 5 C21.03 5 18.06 5 15 5 C15 13.25 15 21.5 15 30 C13.02 30 11.04 30 9 30 C9 21.75 9 13.5 9 5 C6.03 5 3.06 5 0 5 C0 3.35 0 1.7 0 0 Z " fill="#22302A" transform="translate(606,782)"/>
<path d="M0 0 C4.18884636 0.95994396 5.57652227 2.12356217 8 5.6875 C8.91481535 10.53999882 8.64975235 14.38799529 6.4375 18.8125 C4 20.6875 4 20.6875 0.5 21.25 C-3.46545673 20.61269445 -4.60063397 19.8251325 -7 16.6875 C-8.61905107 13.44939786 -8.57034159 10.18732337 -8 6.6875 C-6.19835233 2.99101598 -4.10282706 0.9402312 0 0 Z " fill="#F8F9F9" transform="translate(432,786.3125)"/>
<path d="M0 0 C1.98 0 3.96 0 6 0 C6 9.9 6 19.8 6 30 C4.02 30 2.04 30 0 30 C0 20.1 0 10.2 0 0 Z " fill="#1A2823" transform="translate(666,782)"/>
<path d="M0 0 C0.70125 0.2475 1.4025 0.495 2.125 0.75 C2.455 2.4 2.785 4.05 3.125 5.75 C0.485 7.73 -2.155 9.71 -4.875 11.75 C-6.525 10.1 -8.175 8.45 -9.875 6.75 C-8.33310183 2.12430549 -4.9521101 -0.43061827 0 0 Z " fill="#EFEFEA" transform="translate(634.875,655.25)"/>
<path d="M0 0 C3.7726764 0.53895377 5.68212991 1.99535358 8 5 C7.82246387 8.01811422 7.16264785 8.83735215 5 11 C1.15822926 10.69670231 -1.09427672 9.47524576 -4 7 C-2.79618552 4.50638429 -1.54571278 2.31856917 0 0 Z " fill="#F2F2EE" transform="translate(353,655)"/>
<path d="M0 0 C0.66 0 1.32 0 2 0 C2.99 3.63 3.98 7.26 5 11 C2.36 11 -0.28 11 -3 11 C-2.01 7.37 -1.02 3.74 0 0 Z " fill="#E0E2E2" transform="translate(243,790)"/>
<path d="M0 0 C5.78461538 4.43076923 5.78461538 4.43076923 6.875 7.3125 C6.936875 8.1478125 6.936875 8.1478125 7 9 C4.69 9.66 2.38 10.32 0 11 C0 7.37 0 3.74 0 0 Z " fill="#E8E9E5" transform="translate(578,689)"/>
</svg>
